PathFileType	4	(X/Y/Z)	C:\Users\Basilio\Documents\Thesis Gigler\squatting_fais\c3dfiles\041\SJ_pre1\markers_experimental.trc
DataRate	CameraRate	NumFrames	NumMarkers	Units	OrigDataRate	OrigDataStartFrame	OrigNumFrames
200.000000	200.000000	4	62	mm	200.000000	476	1270
Frame#	Time	FHD			LBHD			RBHD			C7			T10			CLAV			LSHO			LUUPA			LMUPA			LDUPA			LLEP			LMEP			LRAD			LUL			LRFIN			RSHO			RUPA1			RMUPA			RDUPA			RLEP			RMEP			RRAD			RUL			RUFIN			LASI			RASI			USACR			LSACR			RSACR			LTHI1			LTHI2			LTHI3			LTHI4			LLFC			LMFC			LTIB1			LTIB2			LTIB3			LTIB4			LLMAL			LMMAL			LHEE			LMT1			LMT2			LMT5			RTHI			RTHI2			RTHI3			RTHI4			RLFC			RMFC			RTIB1			RTIB2			RTIB3			RTIB4			RLMAL			RMMAL			RHEE			RMT1			RMT2			RMT5			*61			
		X1	Y1	Z1	X2	Y2	Z2	X3	Y3	Z3	X4	Y4	Z4	X5	Y5	Z5	X6	Y6	Z6	X7	Y7	Z7	X8	Y8	Z8	X9	Y9	Z9	X10	Y10	Z10	X11	Y11	Z11	X12	Y12	Z12	X13	Y13	Z13	X14	Y14	Z14	X15	Y15	Z15	X16	Y16	Z16	X17	Y17	Z17	X18	Y18	Z18	X19	Y19	Z19	X20	Y20	Z20	X21	Y21	Z21	X22	Y22	Z22	X23	Y23	Z23	X24	Y24	Z24	X25	Y25	Z25	X26	Y26	Z26	X27	Y27	Z27	X28	Y28	Z28	X29	Y29	Z29	X30	Y30	Z30	X31	Y31	Z31	X32	Y32	Z32	X33	Y33	Z33	X34	Y34	Z34	X35	Y35	Z35	X36	Y36	Z36	X37	Y37	Z37	X38	Y38	Z38	X39	Y39	Z39	X40	Y40	Z40	X41	Y41	Z41	X42	Y42	Z42	X43	Y43	Z43	X44	Y44	Z44	X45	Y45	Z45	X46	Y46	Z46	X47	Y47	Z47	X48	Y48	Z48	X49	Y49	Z49	X50	Y50	Z50	X51	Y51	Z51	X52	Y52	Z52	X53	Y53	Z53	X54	Y54	Z54	X55	Y55	Z55	X56	Y56	Z56	X57	Y57	Z57	X58	Y58	Z58	X59	Y59	Z59	X60	Y60	Z60	X61	Y61	Z61	X62	Y62	Z62	

477	2.38	15.43265056610108	1260.971069335938	-885.3026123046877	-158.9888305664063	1190.320556640625	-963.2985839843752	-139.5190887451172	1192.942626953125	-810.142272949219	-210.7111816406251	1107.539794921875	-900.0826416015627	-429.4024047851564	895.944030761719	-905.687683105469	-104.0774230957032	969.3873291015627	-891.5838623046877	-118.4548797607422	1045.70556640625	-1065.027709960938	-225.0621795654297	977.5622558593752	-1217.768920898438	-243.9560852050782	932.7070312500002	-1217.280517578125	-272.2666015625001	955.7874145507815	-1264.39990234375	-312.6338806152344	931.7467041015627	-1292.065063476563	-387.2161865234376	960.0906982421877	-1245.23388671875	-436.6896362304689	776.1627197265627	-1108.52001953125	-446.7284545898439	723.4843139648439	-1163.181640625	-407.5400390625001	734.7783813476564	-1068.39892578125	-125.497428894043	1042.823608398438	-725.4461669921876	-242.2737884521485	963.6164550781252	-554.3565673828126	-236.6089935302735	914.8547363281252	-567.6114501953126	-274.2637634277344	906.8579711914065	-524.2208862304689	-307.2347412109376	870.3733520507815	-509.384979248047	-381.2108154296876	921.3217773437502	-541.1289672851564	-482.6258850097657	768.7329711914065	-676.6205444335939	-440.9223937988282	751.4905395507814	-721.6372070312501	-467.9949035644532	702.8114013671876	-635.2760009765626	-392.7689514160157	673.0821533203126	-1002.344177246094	-410.8086547851564	688.9963378906251	-789.2630615234377	-527.2450561523439	816.5329589843752	-909.9595336914065	-555.4774780273439	802.7288208007815	-938.7491455078127	-562.6592407226564	804.441345214844	-884.3501586914065	-453.6871032714845	571.3036499023439	-1113.767578125	-368.6127319335938	566.3394165039064	-1123.58984375	-345.5367126464844	605.7273559570314	-1109.840454101563	-335.5548095703126	516.0351562500001	-1130.037475585938	-182.8330078125	446.2301330566407	-1136.792358398438	-162.7216796875	417.8782348632814	-1029.662841796875	-214.941390991211	262.8224792480469	-1101.623413085938	-285.3052673339844	253.6684265136719	-1162.763793945313	-252.5534362792969	235.1431884765626	-1138.946411132813	-284.6283264160157	160.4572143554688	-1112.78955078125	-385.4445190429689	102.3289794921875	-1154.512573242188	-338.3387451171876	98.193962097168	-1076.189086914063	-448.3109741210939	55.13141250610353	-1115.81884765625	-231.7737579345704	56.65793991088869	-1119.375610351563	-230.0696563720704	59.07839965820314	-1164.141967773438	-279.2616577148438	38.96707153320313	-1214.70166015625	-415.9795532226564	554.5559692382814	-686.8912963867189	-350.0530090332032	562.2122802734376	-677.9801635742189	-332.7425842285157	590.2504272460939	-685.9498901367189	-294.0898742675782	496.7678222656251	-674.7698974609376	-204.8816223144532	442.7479248046876	-665.4371948242189	-177.5073547363282	423.4884033203126	-774.5996704101565	-219.5551147460938	286.2065429687501	-671.0720825195314	-327.9575500488282	248.7653808593751	-659.5105590820314	-284.4680786132813	229.5624542236329	-661.2667846679689	-283.9310913085938	177.3370513916016	-687.0287475585939	-382.1786804199219	93.14210510253908	-673.6928100585939	-346.4978942871094	100.2074737548828	-753.1342163085939	-444.2998962402345	50.02235031127931	-723.0510253906251	-226.1390533447266	52.661922454834	-711.9567260742189	-229.2588043212891	57.07857131958009	-660.6345825195314	-275.9176635742188	37.35554504394532	-614.7367553710939	-4217.432128906251	853.2833251953127	-3944.617675781251	
478	2.385	16.05356597900391	1260.985595703125	-885.279724121094	-158.6010131835938	1190.497802734375	-963.4088134765627	-139.2168579101563	1193.018310546875	-810.158630371094	-210.4196777343751	1107.744262695313	-900.2620849609377	-429.3032531738282	896.3592529296877	-905.733093261719	-103.5873260498047	969.8679809570315	-892.1829223632815	-118.2841033935547	1045.91162109375	-1065.15478515625	-224.9697418212891	977.8298339843752	-1217.908569335938	-243.6853790283204	932.9725341796877	-1217.405639648438	-272.1329345703126	956.0452880859377	-1264.484252929688	-312.5118713378907	932.0366210937502	-1292.20654296875	-387.0221557617189	960.4438476562502	-1245.339721679688	-436.7948608398439	776.6092529296877	-1108.633056640625	-446.8611755371095	723.9505004882814	-1163.192749023438	-407.7439270019532	735.3060913085939	-1068.40673828125	-125.2933807373047	1043.058227539063	-725.6105346679689	-242.1011199951172	964.189392089844	-554.3894042968751	-236.4651184082032	915.1851196289065	-567.7133178710939	-274.2588195800782	907.3811035156252	-524.2505493164064	-307.0984497070313	871.018737792969	-509.3831176757814	-380.9713439941407	921.8314208984377	-541.2196044921876	-482.5152587890626	769.293640136719	-676.7158813476564	-441.0734252929689	752.0029907226564	-721.7141723632814	-468.1294860839845	703.2607421875001	-635.4573364257814	-392.9481201171876	673.8641357421876	-1002.391540527344	-410.8986206054689	689.4386596679689	-789.528991699219	-527.0996704101564	817.0598144531252	-909.9410400390627	-555.4892578125001	803.2493286132815	-938.8051757812502	-562.8582153320314	804.9111938476565	-884.3523559570315	-453.9234008789064	571.6623535156251	-1113.74169921875	-368.8665466308594	566.7205200195314	-1123.546264648438	-345.8194885253907	606.1062622070314	-1109.93603515625	-335.7326660156251	516.4979248046876	-1129.979858398438	-183.117904663086	446.4179992675782	-1136.747192382813	-162.8983764648438	418.1059570312501	-1029.608154296875	-215.0997009277344	263.0047302246094	-1101.584838867188	-285.2312011718751	253.812240600586	-1162.704223632813	-252.7013244628907	235.2110595703126	-1138.93017578125	-284.8236694335938	160.4713134765625	-1112.7275390625	-385.4639892578126	102.3112487792969	-1154.491333007813	-338.3791198730469	98.18155670166018	-1076.192504882813	-448.3428344726564	55.13256072998048	-1115.7978515625	-231.7467498779297	56.69476318359376	-1119.404052734375	-230.0732421875001	59.11988067626955	-1164.13720703125	-279.2550048828126	38.95730590820313	-1214.701293945313	-416.2229309082032	555.0300292968751	-686.8596191406251	-350.1856079101563	562.8998413085939	-678.0249633789064	-332.7610778808594	590.6048583984376	-685.9558105468751	-294.5171508789063	497.2157592773439	-674.6892700195314	-205.1492767333985	442.9543762207032	-665.4175415039064	-177.6875152587891	423.6809082031251	-774.5876464843752	-219.8088989257813	286.3438110351563	-671.0070800781251	-328.1466064453126	248.8462982177735	-659.5520629882814	-284.5769958496094	229.618637084961	-661.2402343750001	-284.0169677734376	177.4272003173828	-687.0178833007814	-382.1700134277344	93.14688873291017	-673.6754150390626	-346.4983825683594	100.20849609375	-753.1427612304689	-444.4794311523439	50.10279083251955	-723.0169677734376	-226.1867370605469	52.68142318725587	-711.9700927734376	-229.2766723632813	57.07757568359376	-660.6522216796876	-275.9486694335938	37.32817459106446	-614.7427978515626	-4216.764648437501	853.1677856445315	-3944.833496093751	
479	2.39	15.85105323791504	1261.478759765625	-885.555358886719	-158.1618194580078	1190.6201171875	-963.6223754882815	-138.8070678710938	1193.217041015625	-810.2086181640627	-210.1316986083985	1108.13134765625	-900.4072265625002	-429.206268310547	896.8359375000002	-905.799987792969	-103.5330200195313	969.9868774414065	-892.3134765625002	-118.1011047363282	1046.13330078125	-1065.21484375	-224.7207946777344	978.0654907226565	-1218.04638671875	-243.8605194091797	933.0415039062502	-1217.251953125	-271.9868164062501	956.3041992187502	-1264.596801757813	-312.3794555664063	932.3865966796877	-1292.316528320313	-386.8679199218751	960.8555297851565	-1245.41845703125	-436.9039916992189	777.0859375000002	-1108.670776367188	-446.9835205078126	724.4926147460939	-1163.202514648438	-407.9156188964845	735.8269042968751	-1068.523315429688	-124.9553527832032	1043.28369140625	-725.7820434570314	-241.8885040283204	964.675476074219	-554.5410766601564	-236.2598266601563	915.7207031250002	-567.7325439453126	-274.1340637207032	907.9699707031252	-524.2269897460939	-307.2007446289063	871.5404052734377	-509.2873840332032	-380.7331237792969	922.3770751953127	-541.4236450195314	-482.3939208984376	769.8398437500002	-676.5820312500001	-441.0284729003907	752.6136474609376	-721.7757568359376	-468.1690673828126	703.7253417968751	-635.4525756835939	-393.0663146972657	674.3836669921876	-1002.51806640625	-411.1153564453126	689.6981201171876	-789.5137329101565	-527.0855102539064	817.5544433593752	-909.9971313476565	-555.4946289062501	803.8613891601565	-938.793395996094	-562.6983642578126	805.3765258789065	-884.0742797851565	-454.0367736816407	571.9963378906251	-1113.71728515625	-369.1416015625001	567.1511230468751	-1123.497802734375	-345.9926452636719	606.4598388671876	-1109.93359375	-336.1250305175782	516.9679565429689	-1129.997436523438	-183.5191955566407	446.6250610351564	-1136.720092773438	-163.3956451416016	418.3513793945314	-1029.616577148438	-215.2709350585938	263.1695251464844	-1101.583129882813	-285.4039001464844	253.8049011230469	-1162.7138671875	-252.7430419921876	235.3392639160157	-1138.936401367188	-284.8949584960938	160.5702209472657	-1112.689697265625	-385.5562133789064	102.3206558227539	-1154.537719726563	-338.4236755371094	98.2609558105469	-1076.184448242188	-448.3535461425782	55.13573837280275	-1115.787109375	-231.7438049316407	56.73313522338869	-1119.431884765625	-230.0699310302735	59.22755050659181	-1164.151245117188	-279.2474060058594	38.97551345825196	-1214.69189453125	-416.2608947753907	555.4237060546876	-686.9484863281251	-350.3199462890626	562.9663085937501	-677.9140014648439	-333.0078735351563	590.9494018554689	-685.8710327148439	-294.7351379394532	497.4216308593751	-674.6952514648439	-205.3750305175782	443.1604614257814	-665.3934936523439	-178.0345001220703	423.7849121093751	-774.5653076171877	-219.9659729003907	286.5234985351563	-670.9937744140626	-328.2004394531251	248.8606109619141	-659.5484008789064	-284.6748352050782	229.6674804687501	-661.2606811523439	-284.0973510742188	177.4807891845703	-686.9512329101564	-382.1950073242188	93.15876770019533	-673.6395263671876	-346.5641784667969	100.2317428588867	-753.0440673828126	-444.2671508789064	50.03181457519533	-723.1025390625001	-226.1784362792969	52.71122360229494	-711.9849853515626	-228.9115295410157	57.36235809326173	-660.2727050781251	-275.9962463378907	37.38726425170899	-614.7150268554689	-4216.648437500001	853.1611328125002	-3944.835205078126	
480	2.395	16.17975616455078	1261.472290039063	-885.5665283203127	-157.829330444336	1190.784057617188	-963.7420654296877	-138.4086151123047	1193.407592773438	-810.402770996094	-209.7627716064454	1108.405029296875	-900.5407714843752	-429.0535583496095	897.342712402344	-905.8846435546877	-103.4064025878907	970.2598266601565	-892.5014648437502	-117.9402084350586	1046.466430664063	-1065.295288085938	-224.5468444824219	978.3314208984377	-1218.111206054688	-243.5146942138672	933.3916015625002	-1217.595825195313	-271.8304748535157	956.6326904296877	-1264.651977539063	-312.2815551757813	932.8467407226565	-1292.419067382813	-386.7103271484376	961.299011230469	-1245.463012695313	-437.0711975097657	777.6450195312502	-1108.738159179688	-447.0609741210939	725.0139770507814	-1163.295166015625	-408.0288085937501	736.1618041992189	-1068.565063476563	-124.7922286987305	1043.58447265625	-725.8568115234376	-241.6702728271485	965.075134277344	-554.6557006835939	-236.1004638671876	916.1656494140627	-567.6345214843751	-274.0776062011719	908.4951782226565	-524.2466430664064	-307.1348876953126	872.0670166015627	-509.4554748535157	-380.6051330566407	922.9631347656252	-541.4598388671876	-482.3491821289064	770.4641113281252	-676.7059326171876	-441.1146545410157	753.1842651367189	-721.7740478515626	-468.2329711914064	704.3952636718751	-635.4179077148439	-393.1625366210939	674.8425903320314	-1002.663513183594	-410.3337402343751	690.2892456054689	-789.0281372070315	-527.0667114257814	818.2390747070315	-909.9739990234377	-555.5557861328126	804.4548950195315	-938.8258056640627	-562.6859741210939	805.9449462890627	-884.041442871094	-454.3007812500001	572.5822143554689	-1113.738403320313	-369.4348754882813	567.5439453125001	-1123.41357421875	-346.1139526367188	606.8692626953126	-1109.934204101563	-336.3699340820313	517.3952636718751	-1129.967651367188	-183.7859649658203	446.8545227050782	-1136.748657226563	-164.2037200927735	418.3463745117189	-1029.793090820313	-215.723861694336	263.1913757324219	-1101.087524414063	-285.5071411132813	253.9268035888672	-1162.671142578125	-252.7458190917969	235.4611206054688	-1138.940673828125	-285.0078430175782	160.5545959472657	-1112.608032226563	-385.6159057617189	102.3160171508789	-1154.537475585938	-338.3942871093751	98.27419281005862	-1076.274536132813	-448.3544311523439	55.10027313232423	-1115.819213867188	-231.7708129882813	56.68943405151369	-1119.418334960938	-230.0864257812501	59.15837860107423	-1164.1142578125	-279.2984924316407	38.98358154296876	-1214.690185546875	-416.3345947265626	555.8671875000001	-687.0006103515626	-350.3012390136719	563.3468627929689	-678.0035400390626	-333.1195678710938	591.3663330078126	-685.8333740234376	-295.1100769042969	497.7382202148439	-674.5742187500001	-205.6435241699219	443.374725341797	-665.4872436523439	-178.2705383300782	423.8719482421876	-774.5369873046877	-220.0941467285157	286.6152343750001	-670.9786987304689	-328.3086242675782	248.8609924316407	-659.5050659179689	-284.8023986816407	229.7938232421876	-661.2429809570314	-284.2243041992188	177.572982788086	-686.9768676757814	-382.2109680175782	93.13780975341798	-673.6166992187501	-346.6081542968751	100.2567291259766	-753.0191650390626	-444.4512023925782	50.03935623168947	-723.0090942382814	-226.1904907226563	52.71675872802736	-711.9422607421876	-229.2630004882813	57.17245483398439	-660.6133422851564	-275.9756774902344	37.36751937866212	-614.7231445312501	-4216.636230468751	853.1040039062502	-3944.656738281251	
